<svg width="26" height="23" viewBox="0 0 26 23" fill="none" xmlns="http://www.w3.org/2000/svg">
<path d="M22.7249 10.2022C22.7988 10.2792 22.8893 10.3427 22.9913 10.3892C23.0933 10.4356 23.2048 10.464 23.3194 10.4728C23.4339 10.4815 23.5493 10.4705 23.659 10.4403C23.7687 10.41 23.8705 10.3612 23.9586 10.2966L24.687 9.76153C24.7752 9.69688 24.8479 9.61767 24.9011 9.52843C24.9542 9.43918 24.9867 9.34165 24.9967 9.24142C25.0067 9.14119 24.994 9.04021 24.9593 8.94428C24.9246 8.84834 24.8687 8.75932 24.7946 8.68231L23.7977 7.64435C23.9962 7.42277 24.1244 7.15945 24.1697 6.88083C24.2149 6.60221 24.1755 6.31809 24.0554 6.057C23.54 5.00271 22.838 4.02589 21.9753 3.16241C20.9968 2.07899 19.6235 1.3211 18.0839 1.01481C17.9336 0.988458 17.778 0.997389 17.6329 1.04069C17.4879 1.08399 17.3585 1.16012 17.258 1.26132C17.1576 1.36252 17.0895 1.48519 17.0609 1.61684C17.0323 1.74848 17.044 1.88441 17.095 2.01079C17.395 2.75569 17.5438 3.79644 16.549 4.52595C14.6565 5.91431 11.9668 5.92481 10.5315 5.80625C10.0871 5.76726 9.64051 5.8592 9.2627 6.06746C8.88489 6.27573 8.59751 6.58838 8.44619 6.95577C6.85837 10.9308 4.51335 14.6427 1.51025 17.9344C1.27141 18.194 1.10971 18.5013 1.03953 18.8288C0.969351 19.1562 0.992878 19.4938 1.10802 19.8115C1.22315 20.1291 1.42633 20.4169 1.69946 20.6493C1.97259 20.8816 2.3072 21.0514 2.67351 21.1434C3.86873 21.4451 5.1484 21.3591 6.27689 20.9014L7.05412 21.7102C7.12803 21.7873 7.21863 21.8507 7.32072 21.897C7.42281 21.9433 7.53436 21.9715 7.64895 21.9799C7.67496 21.9816 7.70056 21.9827 7.72656 21.9827C7.93157 21.9827 8.12999 21.9193 8.28659 21.8036L9.01542 21.2686C9.19318 21.1378 9.30432 20.9507 9.32442 20.7483C9.34452 20.546 9.27194 20.3449 9.12263 20.1893L8.46299 19.4997L9.67265 18.6121L10.3339 19.3004C10.4839 19.4551 10.6979 19.5518 10.9291 19.5693C11.1602 19.5869 11.39 19.5239 11.5683 19.3941L12.2964 18.8587C12.3846 18.7941 12.4575 18.7149 12.5107 18.6257C12.5639 18.5364 12.5964 18.4389 12.6065 18.3386C12.6165 18.2384 12.6038 18.1374 12.5691 18.0414C12.5345 17.9455 12.4785 17.8565 12.4044 17.7794L11.676 17.022C12.6652 15.7054 13.8512 14.5104 15.2025 13.4685C16.1851 12.7193 17.2643 12.0728 18.4183 11.5423L19.4447 12.6103C19.5187 12.6874 19.6093 12.751 19.7115 12.7974C19.8136 12.8438 19.9253 12.8721 20.04 12.8806C20.0656 12.8824 20.0916 12.8834 20.1172 12.8834C20.3222 12.8834 20.5207 12.8198 20.6772 12.704L21.408 12.1697C21.585 12.0384 21.6955 11.8514 21.7155 11.6493C21.7355 11.4472 21.6634 11.2463 21.5148 11.0904L20.5488 10.0854L21.7576 9.19639L22.7249 10.2022ZM24.1822 9.13239C24.1887 9.13904 24.1936 9.14677 24.1966 9.15513C24.1997 9.16348 24.2007 9.17228 24.1998 9.181C24.199 9.1896 24.1962 9.19797 24.1916 9.2056C24.187 9.21324 24.1806 9.21998 24.173 9.22542L23.4441 9.76083C23.4365 9.76643 23.4277 9.77067 23.4182 9.77328C23.4087 9.77589 23.3987 9.77683 23.3887 9.77605C23.3788 9.77527 23.3692 9.77279 23.3603 9.76873C23.3515 9.76468 23.3437 9.75914 23.3373 9.75244L22.3697 8.74631L23.2141 8.12521L24.1822 9.13239ZM5.80686 13.6755C6.31653 13.7237 6.80668 13.8737 7.23933 14.1141C7.28417 14.138 7.33396 14.154 7.38587 14.1612C7.43777 14.1683 7.49078 14.1664 7.54185 14.1556C7.59293 14.1448 7.64107 14.1254 7.68354 14.0983C7.72601 14.0713 7.76197 14.0372 7.78936 13.998C7.81676 13.9588 7.83505 13.9152 7.8432 13.8699C7.85136 13.8245 7.8492 13.7782 7.83687 13.7335C7.82454 13.6888 7.80227 13.6468 7.77133 13.6096C7.74039 13.5725 7.70139 13.5411 7.65655 13.5171C7.21941 13.2786 6.73657 13.1111 6.23128 13.0226C6.4413 12.6893 6.64931 12.3442 6.85612 11.9917C7.29214 12.0595 7.70911 12.2002 8.08418 12.4061C8.17462 12.4546 8.2834 12.4697 8.38659 12.4481C8.48977 12.4265 8.57892 12.3699 8.6344 12.2908C8.68989 12.2118 8.70717 12.1167 8.68246 12.0265C8.65774 11.9363 8.59304 11.8583 8.5026 11.8098C8.10863 11.5958 7.67793 11.4384 7.22693 11.3436C7.41708 11.004 7.60375 10.6556 7.78696 10.2987C8.19221 10.3707 8.57924 10.5061 8.92942 10.6984C8.97407 10.726 9.0247 10.7452 9.0782 10.755C9.1317 10.7648 9.18692 10.7649 9.24046 10.7553C9.294 10.7457 9.34472 10.7266 9.3895 10.6992C9.43427 10.6718 9.47215 10.6367 9.50079 10.596C9.52943 10.5553 9.54823 10.5099 9.55603 10.4626C9.56382 10.4153 9.56045 10.3671 9.54612 10.321C9.53179 10.2749 9.5068 10.2318 9.47269 10.1945C9.43859 10.1572 9.3961 10.1263 9.34784 10.1039C8.96648 9.89715 8.55051 9.74375 8.11498 9.64927C8.28379 9.30375 8.44859 8.95077 8.6094 8.59033C9.02228 8.66199 9.41718 8.79759 9.77546 8.99076C9.82035 9.01462 9.87017 9.03051 9.92208 9.03753C9.974 9.04456 10.027 9.04257 10.078 9.0317C10.1291 9.02082 10.1772 9.00126 10.2195 8.97413C10.2619 8.94701 10.2978 8.91285 10.3251 8.8736C10.3524 8.83436 10.3706 8.7908 10.3786 8.74542C10.3866 8.70003 10.3844 8.6537 10.3719 8.60909C10.3595 8.56447 10.3371 8.52243 10.3061 8.48537C10.275 8.44831 10.236 8.41695 10.1911 8.39309C9.79143 8.17686 9.35444 8.0185 8.89702 7.92413C9.00022 7.67933 9.10303 7.43453 9.20143 7.18448C9.2864 6.98079 9.44167 6.80521 9.64577 6.68204C9.84987 6.55886 10.0927 6.49418 10.3407 6.49694C10.3807 6.49694 10.4183 6.49694 10.4575 6.50149C11.3277 6.57375 12.2042 6.56414 13.072 6.47281C12.2981 9.77574 10.6353 12.87 8.22138 15.4993C8.13082 15.5841 8.00896 15.6382 7.87725 15.6521C7.74555 15.6661 7.61243 15.639 7.50135 15.5755C6.74162 15.186 5.90743 14.9202 5.03923 14.7908C5.29524 14.433 5.55125 14.0623 5.80686 13.6755ZM8.5118 20.6394C8.52261 20.6536 8.52759 20.6707 8.52592 20.6877C8.52425 20.7047 8.51603 20.7207 8.5026 20.7331L7.77376 21.2682C7.75744 21.2775 7.738 21.2818 7.71857 21.2804C7.69913 21.2789 7.68082 21.2718 7.66655 21.2602L6.98372 20.5488C7.13835 20.4593 7.28725 20.3624 7.42974 20.2586L7.85016 19.9501L8.5118 20.6394ZM11.792 18.2309C11.7985 18.2376 11.8034 18.2453 11.8064 18.2537C11.8094 18.262 11.8105 18.2708 11.8096 18.2795C11.8088 18.2882 11.806 18.2966 11.8014 18.3043C11.7968 18.312 11.7904 18.3188 11.7828 18.3243L11.0543 18.8594C11.0467 18.8651 11.0379 18.8695 11.0283 18.8722C11.0188 18.875 11.0087 18.876 10.9987 18.8753C10.9887 18.8746 10.9789 18.8721 10.97 18.868C10.9611 18.864 10.9531 18.8584 10.9467 18.8517L10.2855 18.1638L11.1307 17.5434L11.792 18.2309ZM20.9024 11.5405C20.9153 11.5541 20.9215 11.5716 20.9197 11.5891C20.9179 11.6067 20.9082 11.6229 20.8928 11.6343L20.164 12.1693C20.1478 12.1788 20.1285 12.1831 20.1091 12.1817C20.0898 12.1802 20.0716 12.173 20.0576 12.1613L19.0919 11.1569L19.9368 10.5358L20.9024 11.5405ZM18.3199 10.8121C17.004 11.3703 15.7824 12.0845 14.6897 12.9345C13.2163 14.0655 11.9324 15.3723 10.8759 16.8163L6.91572 19.7221C6.36776 20.1264 5.71422 20.4063 5.01298 20.537C4.31174 20.6677 3.58445 20.6452 2.89552 20.4716C2.65606 20.4113 2.43735 20.3003 2.25884 20.1483C2.08032 19.9963 1.94755 19.8081 1.87233 19.6005C1.7971 19.3928 1.78177 19.1721 1.82768 18.958C1.87359 18.7439 1.97933 18.543 2.13548 18.3733C2.87192 17.5745 3.70876 16.5897 4.5708 15.4357C5.45958 15.5307 6.31698 15.7827 7.09093 16.1764C7.31012 16.2909 7.56077 16.3514 7.81616 16.3512C8.00523 16.3521 8.19237 16.3181 8.36529 16.2512C8.53821 16.1844 8.69297 16.0863 8.81941 15.9634C11.3884 13.1701 13.137 9.86988 13.9129 6.35041C15.0673 6.15286 16.1489 5.71112 17.063 5.06381C18.1135 4.29443 18.3927 3.12743 17.8507 1.78173C17.8459 1.77167 17.8445 1.76062 17.8467 1.74989C17.8489 1.73917 17.8546 1.72923 17.8631 1.72123C17.8701 1.71294 17.8796 1.70651 17.8905 1.70262C17.9015 1.69873 17.9134 1.69755 17.9251 1.6992C19.2882 1.97438 20.5023 2.6495 21.3652 3.61214C22.1736 4.4185 22.8312 5.33144 23.3137 6.31719C23.3965 6.4959 23.4122 6.693 23.3585 6.88001C23.3048 7.06703 23.1845 7.23427 23.0149 7.35759L18.3199 10.8121Z" fill="#64EBB2" stroke="#64EBB2" stroke-width="0.6"/>
</svg>
