<svg width="40" height="41" viewBox="0 0 40 41" fill="none" xmlns="http://www.w3.org/2000/svg">
<path d="M20.2028 0C14.0836 0 8.62783 2.68385 4.93155 6.93879C3.80518 8.23669 2.84001 9.67831 2.07227 11.2377L8.86993 16.43C9.65774 14.0394 11.179 11.988 13.1682 10.5367C15.1381 9.10153 17.5669 8.25352 20.2022 8.25352C23.0492 8.25352 25.6204 9.26272 27.6407 10.9134L33.5179 5.04468C29.9375 1.92582 25.3459 0 20.2028 0Z" fill="#FF7976"/>
<path d="M2.07227 11.2371L8.86993 16.4294C9.65774 14.0388 11.179 11.9874 13.1682 10.536C15.1381 9.10089 17.5669 8.25288 20.2022 8.25288C23.0492 8.25288 25.6204 9.26207 27.6407 10.9128L33.5179 5.04404C29.9362 1.92647 25.3453 0 20.2022 0" fill="#E3443A"/>
<path d="M8.26518 20.1742C8.26518 19.9884 8.27877 19.8052 8.28719 19.6213C8.34027 18.5105 8.53771 17.4398 8.87044 16.4293L2.07277 11.2371C0.822763 13.7727 0.0977476 16.6119 0.0161834 19.6213C0.0110047 19.8058 0 19.989 0 20.1742C0 20.36 0.0110047 20.5438 0.0155361 20.7283C0.0971003 23.7339 0.822116 26.5718 2.06888 29.1048L8.86461 23.9028C8.53512 22.8975 8.33897 21.8313 8.28719 20.7276C8.27877 20.5438 8.26518 20.3606 8.26518 20.1742Z" fill="#F4D72C"/>
<path d="M2.07031 29.1048L8.86604 23.9028C8.53654 22.8975 8.3404 21.8313 8.28862 20.7276C8.2802 20.5432 8.26661 20.36 8.26661 20.1735C8.26661 19.9877 8.2802 19.8045 8.28862 19.6207C8.3417 18.5099 8.53913 17.4392 8.87186 16.4287L2.07355 11.2371" fill="#F7B92B"/>
<path d="M26.9125 30.3313C25.0915 31.4784 22.798 32.0953 20.2028 32.0953C18.6842 32.0953 17.2374 31.8066 15.9039 31.2932C14.9219 30.9152 14.0052 30.4096 13.1682 29.8011C11.1796 28.353 9.65774 26.3081 8.86993 23.9194L2.07227 29.1111C2.83871 30.6679 3.80195 32.1076 4.92637 33.4035C8.62265 37.663 14.0823 40.3488 20.2028 40.3488C22.0542 40.3488 23.8739 40.1015 25.6113 39.6199C28.4997 38.8185 31.1616 37.3678 33.3658 35.3209L26.9125 30.3313Z" fill="#59C96E"/>
<path d="M2.07227 29.1113C2.83871 30.6682 3.80195 32.1078 4.92637 33.4038C8.62265 37.6633 14.0823 40.3491 20.2028 40.3491C22.0542 40.3491 23.8739 40.1018 25.6113 39.6202C28.4997 38.8188 31.1616 37.3681 33.3658 35.3212L26.9118 30.3322C25.0909 31.4793 22.7974 32.0962 20.2022 32.0962C18.6835 32.0962 17.2367 31.8075 15.9032 31.2941C14.9212 30.9161 14.0046 30.4105 13.1676 29.802" fill="#40A557"/>
<path d="M39.0281 16.29H37.8169H20.3906V19.6212V20.7282V24.0581H31.0386C30.4968 26.6474 29.0222 29.0011 26.9119 30.3314L33.3658 35.3204C35.1356 33.6775 36.6057 31.6157 37.6635 29.2309C38.8235 26.6183 39.487 23.4891 39.487 20.0504C39.487 18.8593 39.3038 17.5847 39.0281 16.29Z" fill="#0FAEF4"/>
<path d="M33.3652 35.3204C35.135 33.6775 36.6181 31.5924 37.6758 29.2076C38.8359 26.595 39.4929 23.4774 39.4929 20.0394C39.4929 18.8477 39.3032 17.5847 39.0275 16.29H37.8681" fill="#4087ED"/>
<path d="M20.3906 19.5266V20.7281V24.058H30.748" fill="#4087ED"/>
</svg>
