<svg width="27" height="26" viewBox="0 0 27 26" fill="none" xmlns="http://www.w3.org/2000/svg">
<path d="M26.8796 12.768C26.8796 11.004 25.4516 10.08 23.5196 10.08H17.8916C18.3116 8.568 18.4796 7.14 18.4796 5.88C18.4796 1.008 17.1356 0 15.9596 0C15.2036 0 14.6156 0.0840003 13.8596 0.504C13.6076 0.672 13.5236 0.84 13.4396 1.092L12.5996 5.628C11.6756 7.98 9.40757 10.08 7.55957 11.508V23.52C8.23157 23.52 8.90357 23.856 9.74357 24.276C10.6676 24.696 11.5916 25.2 12.5996 25.2H20.5796C22.2596 25.2 23.5196 23.856 23.5196 22.68C23.5196 22.428 23.5196 22.26 23.4356 22.092C24.4436 21.672 25.1996 20.832 25.1996 19.74C25.1996 19.236 25.1156 18.816 24.9476 18.396C25.6196 17.976 26.2076 17.22 26.2076 16.38C26.2076 15.876 25.9556 15.372 25.7036 14.952C26.3756 14.448 26.8796 13.608 26.8796 12.768ZM25.1156 12.768C25.1156 13.86 24.0236 13.944 23.8556 14.448C23.6876 15.036 24.5276 15.204 24.5276 16.212C24.5276 17.22 23.2676 17.22 23.0996 17.808C22.9316 18.48 23.5196 18.648 23.5196 19.656V19.824C23.3516 20.664 22.0916 20.748 21.8396 21.084C21.5876 21.504 21.8396 21.672 21.8396 22.596C21.8396 23.1 21.2516 23.436 20.5796 23.436H12.5996C11.9276 23.436 11.2556 23.1 10.4156 22.68C9.74357 22.344 9.07157 22.008 8.39957 21.84V13.02C10.4996 11.424 13.1876 9.072 14.1956 6.132V5.964L14.9516 1.764C15.2876 1.68 15.5396 1.68 15.9596 1.68C16.1276 1.68 16.7996 2.688 16.7996 5.88C16.7996 7.14 16.5476 8.484 16.1276 10.08H15.9596C15.4556 10.08 15.1196 10.416 15.1196 10.92C15.1196 11.424 15.4556 11.76 15.9596 11.76H23.5196C24.3596 11.76 25.1156 12.18 25.1156 12.768Z" fill="#D7AE37"/>
<path d="M6.72 25.2001H1.68C0.756 25.2001 0 24.4441 0 23.5201V11.7601C0 10.8361 0.756 10.0801 1.68 10.0801H6.72C7.644 10.0801 8.4 10.8361 8.4 11.7601V23.5201C8.4 24.4441 7.644 25.2001 6.72 25.2001ZM1.68 11.7601V23.5201H6.72V11.7601H1.68Z" fill="#D7AE37"/>
</svg>
