<svg width="19" height="21" viewBox="0 0 19 21" fill="none" xmlns="http://www.w3.org/2000/svg">
<path d="M9.49999 18.2513L14.7247 13.4713C17.6102 10.8314 17.6102 6.55124 14.7247 3.91133C11.8392 1.27142 7.16079 1.27142 4.27526 3.91133C1.38972 6.55124 1.38972 10.8314 4.27526 13.4713L9.49999 18.2513ZM9.49999 20.9827L2.78248 14.837C-0.927494 11.4428 -0.927494 5.9398 2.78248 2.54563C6.49246 -0.848543 12.5075 -0.848543 16.2175 2.54563C19.9275 5.9398 19.9275 11.4428 16.2175 14.837L9.49999 20.9827ZM9.49999 10.6227C10.666 10.6227 11.6111 9.75803 11.6111 8.69132C11.6111 7.62463 10.666 6.75991 9.49999 6.75991C8.33402 6.75991 7.38888 7.62463 7.38888 8.69132C7.38888 9.75803 8.33402 10.6227 9.49999 10.6227ZM9.49999 12.5541C7.16812 12.5541 5.27777 10.8246 5.27777 8.69132C5.27777 6.55795 7.16812 4.82851 9.49999 4.82851C11.8318 4.82851 13.7222 6.55795 13.7222 8.69132C13.7222 10.8246 11.8318 12.5541 9.49999 12.5541Z" fill="#64EBB2"/>
</svg>
