<svg width="53" height="37" viewBox="0 0 53 37" fill="none" xmlns="http://www.w3.org/2000/svg">
<path d="M18.8506 2.02062C18.7265 2.02062 18.6126 2.0451 18.4987 2.09406L2.41271 9.11962C1.15989 9.66632 0.656725 11.122 1.24489 12.2938L11.8046 33.3215C12.3944 34.4932 13.9124 35.0677 15.1483 34.4051L20.9653 31.293C21.9648 30.8066 21.0401 29.3673 20.1391 29.8683L14.3187 32.9788C13.9855 33.1583 13.5249 32.9951 13.3328 32.6132L12.629 31.2146L15.8333 29.6757C16.8618 29.1796 15.9659 27.7826 15.0684 28.2167L11.8896 29.7426L2.77648 11.5839C2.5844 11.2036 2.73739 10.7712 3.11646 10.6047L19.2042 3.57914C20.0286 3.21685 19.6921 2.02062 18.8523 2.02062H18.8506ZM26.971 0.388672C26.648 0.388672 26.3301 0.44579 26.0326 0.558395C25.4377 0.781973 24.9311 1.2226 24.6557 1.82316L14.8083 23.4808C14.2643 24.6835 14.8423 26.1082 16.0951 26.6305L38.6645 36.0909C39.9173 36.6131 41.4013 36.0583 41.9453 34.8555L51.7961 13.1881C52.3401 11.9853 51.757 10.5606 50.5042 10.0384L27.9399 0.584506C27.6271 0.45395 27.2974 0.388672 26.971 0.388672ZM26.9455 2.01083C27.0475 2.0141 27.1529 2.03694 27.2566 2.08101L49.8277 11.5382C50.2424 11.7128 50.4141 12.142 50.2322 12.5386L42.0388 30.5667L18.0194 20.5041L26.2162 2.47104C26.3522 2.17403 26.6361 2.0043 26.9455 2.01083ZM17.3377 21.999L41.3571 32.0649L40.3848 34.2076C40.2029 34.6058 39.7558 34.7739 39.3428 34.5993L16.7717 25.1421C16.3569 24.9675 16.1818 24.5383 16.3637 24.1385L17.3377 21.999ZM13.751 19.9721C13.377 19.9688 13.0574 20.1892 12.9435 20.5302L11.2436 25.4261C10.9138 26.3775 12.4896 27.0042 12.8585 25.9418L14.5584 21.0459C14.7488 20.5188 14.3323 19.9754 13.751 19.9721ZM29.0499 15.0762C28.9225 15.0762 28.7848 15.1089 28.6709 15.1627L21.8713 18.4266C20.8582 18.8624 21.7132 20.3687 22.6295 19.8856L28.7576 16.9448L31.7426 21.2401C31.9806 21.5828 32.4446 21.7003 32.8305 21.5176L38.9569 18.5768L41.9419 22.8721C42.5402 23.7648 43.9648 22.8182 43.3562 21.968L39.9564 17.0721C39.7184 16.7294 39.2544 16.6119 38.8685 16.7947L32.7421 19.7355L29.7571 15.4402C29.5973 15.2084 29.3389 15.0714 29.0499 15.0762ZM29.8999 6.91648C28.03 6.91648 26.5001 8.38524 26.5001 10.1804C26.5001 11.9755 28.03 13.4443 29.8999 13.4443C31.7698 13.4443 33.2997 11.9755 33.2997 10.1804C33.2997 8.38524 31.7698 6.91648 29.8999 6.91648ZM29.8999 8.54844C30.8569 8.54844 31.5998 9.2616 31.5998 10.1804C31.5998 11.0992 30.8569 11.8123 29.8999 11.8123C28.9429 11.8123 28.2 11.0992 28.2 10.1804C28.2 9.2616 28.9429 8.54844 29.8999 8.54844ZM11.2011 11.8123C9.33125 11.8123 7.80135 13.2811 7.80135 15.0762C7.80135 16.8714 9.33125 18.3402 11.2011 18.3402C13.071 18.3402 14.6009 16.8714 14.6009 15.0762C14.6009 13.2811 13.071 11.8123 11.2011 11.8123ZM11.2011 13.4443C12.1582 13.4443 12.901 14.1575 12.901 15.0762C12.901 15.995 12.1582 16.7082 11.2011 16.7082C10.2441 16.7082 9.50124 15.995 9.50124 15.0762C9.50124 14.1575 10.2441 13.4443 11.2011 13.4443Z" fill="#223E88" stroke="#223E88" stroke-width="0.6"/>
</svg>
