<svg width="20" height="23" viewBox="0 0 20 23" fill="none" xmlns="http://www.w3.org/2000/svg">
<path d="M17.579 1H2.42101C1.63749 1 1 1.5573 1 2.24236V20.9612C1 21.6463 1.63749 22.2036 2.42101 22.2036H17.5789C18.3626 22.2036 19 21.6463 19 20.9612V2.24236C19 1.5573 18.3626 1 17.579 1ZM5.73681 1.82827H14.2632V2.65649H13.2668C13.0052 2.65649 12.7931 2.84194 12.7931 3.07062C12.7931 3.29931 13.0052 3.48476 13.2668 3.48476H14.2632V5.55546C14.2632 5.78381 14.0507 5.96955 13.7894 5.96955H6.21059C5.94935 5.96955 5.73685 5.78381 5.73685 5.55546L5.73681 1.82827ZM1.94737 2.24236C1.94737 2.014 2.15987 1.82827 2.42101 1.82827H4.78944V5.55546C4.78944 6.24052 5.42692 6.79782 6.21054 6.79782H13.7895C14.5731 6.79782 15.2107 6.24052 15.2107 5.55546V1.82827H17.579C17.8402 1.82827 18.0526 2.014 18.0526 2.24236V11.1877H13.2815C13.0508 9.78471 11.6675 8.70283 10.0001 8.70283C8.33265 8.70283 6.9493 9.78471 6.71871 11.1877H1.94737V2.24236ZM12.3208 12.0159C12.1008 12.96 11.1438 13.6725 10.0001 13.6725C8.85636 13.6725 7.89937 12.96 7.67934 12.0159H12.3208ZM7.6793 11.1877C7.89937 10.2437 8.85631 9.53109 10.0001 9.53109C11.1438 9.53109 12.1008 10.2437 12.3208 11.1877H7.6793ZM14.2633 21.3753H5.73681V20.5472H6.73311C6.99473 20.5472 7.2068 20.3617 7.2068 20.133C7.2068 19.9043 6.99473 19.7189 6.73311 19.7189H5.73681V17.6481C5.73681 17.4198 5.9493 17.234 6.21054 17.234H13.7895C14.0508 17.234 14.2633 17.4198 14.2633 17.6481V21.3753ZM18.0527 20.9612C18.0527 21.1896 17.8402 21.3753 17.579 21.3753H15.2106V17.6481C15.2106 16.9631 14.5731 16.4058 13.7895 16.4058H6.21059C5.42697 16.4058 4.78948 16.9631 4.78948 17.6481V21.3753H2.42106C2.15987 21.3753 1.94742 21.1896 1.94742 20.9612V12.0159H6.71871C6.9493 13.4189 8.3326 14.5008 10.0001 14.5008C11.6675 14.5008 13.0508 13.4189 13.2815 12.0159H18.0527V20.9612Z" fill="#64EBB2" stroke="#64EBB2" stroke-width="0.5"/>
</svg>
