<svg width="21" height="25" viewBox="0 0 21 25" fill="none" xmlns="http://www.w3.org/2000/svg">
<path d="M10.6002 12.1908C9.33439 12.1908 8.09702 11.8626 7.04455 11.2478C5.99207 10.6329 5.17177 9.75905 4.68737 8.73663C4.20297 7.71421 4.07623 6.58917 4.32317 5.50377C4.57012 4.41838 5.17966 3.42138 6.07471 2.63885C6.96977 1.85632 8.11014 1.32341 9.35162 1.10752C10.5931 0.891617 11.8799 1.00242 13.0494 1.42592C14.2188 1.84943 15.2184 2.5666 15.9216 3.48675C16.6248 4.40691 17.0002 5.48872 17.0002 6.59538C17.0002 8.07936 16.3259 9.50257 15.1257 10.5519C13.9254 11.6012 12.2976 12.1908 10.6002 12.1908ZM10.6002 2.39885C9.65084 2.39885 8.72281 2.64497 7.93346 3.10609C7.1441 3.56721 6.52888 4.22262 6.16557 4.98943C5.80227 5.75625 5.70722 6.60003 5.89243 7.41408C6.07764 8.22813 6.53479 8.97588 7.20608 9.56277C7.87737 10.1497 8.73265 10.5493 9.66376 10.7113C10.5949 10.8732 11.56 10.7901 12.4371 10.4725C13.3142 10.1548 14.0638 9.61696 14.5912 8.92684C15.1187 8.23673 15.4002 7.42537 15.4002 6.59538C15.4002 5.48239 14.8945 4.41498 13.9943 3.62798C13.0941 2.84098 11.8732 2.39885 10.6002 2.39885Z" fill="#64EBB2" stroke="#64EBB2" stroke-width="0.5"/>
<path d="M16.2 24.1166H5C3.93913 24.1166 2.92172 23.7482 2.17157 23.0923C1.42143 22.4365 1 21.547 1 20.6195V17.8218C1.00002 17.7004 1.03618 17.5812 1.10491 17.4757C1.17364 17.3702 1.27258 17.2822 1.392 17.2203L5.392 15.1221C5.57247 15.0507 5.77678 15.0405 5.9654 15.0933C6.15401 15.1461 6.31353 15.2582 6.41307 15.4079C6.51261 15.5575 6.54511 15.7342 6.50427 15.9036C6.46343 16.0731 6.35217 16.2232 6.192 16.3251L2.6 18.2205V20.6195C2.6 21.176 2.85285 21.7097 3.30294 22.1032C3.75303 22.4967 4.36348 22.7178 5 22.7178H16.2C16.8365 22.7178 17.447 22.4967 17.897 22.1032C18.3471 21.7097 18.6 21.176 18.6 20.6195V18.2205L14.992 16.3251C14.89 16.2848 14.7988 16.2262 14.7243 16.1531C14.6498 16.0801 14.5937 15.9942 14.5596 15.901C14.5254 15.8078 14.514 15.7093 14.5262 15.612C14.5383 15.5148 14.5736 15.4208 14.6299 15.3362C14.6861 15.2516 14.7621 15.1782 14.8528 15.1209C14.9435 15.0635 15.047 15.0235 15.1565 15.0033C15.266 14.9831 15.3792 14.9833 15.4887 15.0037C15.5981 15.0242 15.7015 15.0645 15.792 15.1221L19.792 17.2203C19.9144 17.2805 20.0165 17.3677 20.0881 17.4733C20.1598 17.5789 20.1983 17.6991 20.2 17.8218V20.6195C20.2 21.547 19.7786 22.4365 19.0284 23.0923C18.2783 23.7482 17.2609 24.1166 16.2 24.1166Z" fill="#64EBB2" stroke="#64EBB2" stroke-width="0.5"/>
</svg>
