<svg width="21" height="18" viewBox="0 0 21 18" fill="none" xmlns="http://www.w3.org/2000/svg">
<path d="M19.9858 6.99294C19.9572 6.91652 19.9005 6.85039 19.8243 6.80476C19.7481 6.75913 19.6568 6.73653 19.5643 6.74046H12.951L10.9236 1.25166C10.8959 1.17845 10.8422 1.11471 10.7703 1.06952C10.6984 1.02433 10.6119 1 10.5232 1C10.4344 1 10.3479 1.02433 10.276 1.06952C10.2041 1.11471 10.1505 1.17845 10.1227 1.25166L8.05318 6.74046H1.42301C1.33381 6.74018 1.2468 6.76448 1.17452 6.80985C1.10224 6.85523 1.0484 6.91934 1.02075 6.99297C0.993108 7.0666 0.993082 7.14594 1.02068 7.21958C1.04827 7.29322 1.10207 7.35736 1.17432 7.40277L6.54 10.7875L4.4873 16.2544C4.46088 16.3277 4.46172 16.4064 4.48971 16.4793C4.5177 16.5522 4.57143 16.6156 4.64326 16.6605C4.71505 16.7055 4.80132 16.7297 4.88983 16.7297C4.97835 16.7297 5.06462 16.7055 5.13641 16.6605L10.5021 13.2868L15.8678 16.6679C15.9396 16.7128 16.0258 16.737 16.1143 16.737C16.2029 16.737 16.2891 16.7128 16.3609 16.6679C16.4345 16.6225 16.4893 16.5579 16.5174 16.4834C16.5455 16.409 16.5453 16.3287 16.5169 16.2544L14.4642 10.7656L19.8299 7.38082C19.8976 7.33714 19.9486 7.27682 19.9765 7.20767C20.0043 7.13852 20.0075 7.06372 19.9858 6.99294ZM13.7223 10.3521C13.6495 10.3979 13.5955 10.4628 13.5682 10.5372C13.5409 10.6116 13.5418 10.6916 13.5706 10.7656L15.3114 15.4237L10.7508 12.5366C10.6786 12.4908 10.5915 12.4661 10.5021 12.4661C10.4127 12.4661 10.3256 12.4908 10.2534 12.5366L5.69279 15.4164L7.43358 10.7656C7.46044 10.6926 7.46025 10.6142 7.43303 10.5413C7.40581 10.4684 7.35292 10.4048 7.28184 10.3594L2.71701 7.4723H8.35666C8.4491 7.47622 8.54046 7.45363 8.61664 7.40799C8.69282 7.36236 8.74958 7.29623 8.77816 7.21981L10.5021 2.56165L12.2429 7.21981C12.2715 7.29623 12.3282 7.36236 12.4044 7.40799C12.4806 7.45363 12.5719 7.47622 12.6644 7.4723H18.2872L13.7223 10.3521Z" fill="#64EBB2" stroke="#64EBB2" stroke-width="0.8"/>
</svg>
