<svg width="49" height="39" viewBox="0 0 49 39" fill="none" xmlns="http://www.w3.org/2000/svg">
<path d="M35 30.6058C35 34.5244 31.6921 37.7016 27.6111 37.7016H7.38889C3.30789 37.7016 0 34.5244 0 30.6058V18.6549C0 14.7363 3.30789 11.5591 7.38889 11.5591H27.6111C31.6921 11.5591 35 14.7363 35 18.6549V30.6058ZM32.6667 18.6549C32.6667 15.9735 30.4033 13.7999 27.6111 13.7999H7.38889C4.59667 13.7999 2.33333 15.9735 2.33333 18.6549V30.6058C2.33333 33.2871 4.59667 35.4608 7.38889 35.4608H27.6111C30.4033 35.4608 32.6667 33.2871 32.6667 30.6058V18.6549Z" fill="#223E88"/>
<path d="M45.9879 38.7371C45.4622 38.7371 44.8578 38.593 44.3974 38.3197L33.3257 31.7615C32.971 31.5509 32.7393 31.1731 32.7525 30.7729L33.0939 20.5088C33.1056 20.14 33.3016 19.801 33.6252 19.6016L44.2815 13.0516C44.752 12.7641 45.4497 12.6133 45.9879 12.6133C47.5575 12.6133 49.0003 13.861 49.0003 15.3955V35.9542C49.0003 37.4894 47.5567 38.7371 45.9879 38.7371ZM35.0858 30.1979L45.7087 36.4142C46.0408 36.6135 46.6669 36.4201 46.6669 35.9542V15.3955C46.6669 14.928 46.0424 14.7309 45.7002 14.9407L35.4778 21.1711L35.0858 30.1979Z" fill="#223E88"/>
<path d="M23.0662 13.5969C20.0235 13.5969 17.5479 11.2194 17.5479 8.2976C17.5479 5.37503 20.0235 2.99756 23.0662 2.99756C26.1089 2.99756 28.5853 5.37503 28.5853 8.2976C28.5853 11.2194 26.1089 13.5969 23.0662 13.5969ZM23.0662 5.23839C21.31 5.23839 19.8812 6.61007 19.8812 8.2976C19.8812 9.98363 21.31 11.3561 23.0662 11.3561C24.8232 11.3561 26.252 9.98363 26.252 8.2976C26.252 6.61007 24.8232 5.23839 23.0662 5.23839Z" fill="#223E88"/>
<path d="M13.1291 13.5971C9.37092 13.5971 6.31348 10.6611 6.31348 7.05233C6.31348 3.4443 9.37092 0.508301 13.1291 0.508301C16.8866 0.508301 19.944 3.4443 19.944 7.05233C19.944 10.6611 16.8866 13.5971 13.1291 13.5971ZM13.1291 2.74913C10.6574 2.74913 8.64681 4.67934 8.64681 7.05233C8.64681 9.42533 10.6574 11.3563 13.1291 11.3563C15.6001 11.3563 17.6107 9.42533 17.6107 7.05233C17.6107 4.67934 15.6001 2.74913 13.1291 2.74913Z" fill="#223E88"/>
</svg>
