<?xml version="1.0" encoding="UTF-8"?>
<!DOCTYPE svg PUBLIC "-//W3C//DTD SVG 1.1//EN" "http://www.w3.org/Graphics/SVG/1.1/DTD/svg11.dtd">
<!-- Creator: CorelDRAW -->
<svg xmlns="http://www.w3.org/2000/svg" xml:space="preserve" width="45.124mm" height="45.8276mm" version="1.1" style="shape-rendering:geometricPrecision; text-rendering:geometricPrecision; image-rendering:optimizeQuality; fill-rule:evenodd; clip-rule:evenodd"
viewBox="0 0 416.85 423.35"
 xmlns:xlink="http://www.w3.org/1999/xlink"
 xmlns:xodm="http://www.corel.com/coreldraw/odm/2003">
 <defs>
  <style type="text/css">
   <![CDATA[
    .fil2 {fill:#FFD505}
    .fil0 {fill:#002BA1;fill-rule:nonzero}
    .fil1 {fill:#FFD505;fill-rule:nonzero}
   ]]>
  </style>
 </defs>
 <g id="Layer_x0020_1">
  <metadata id="CorelCorpID_0Corel-Layer"/>
  <g id="_1982251277104">
   <path class="fil0" d="M57.23 292.3l134.8 0c15.56,0 29.72,-6.38 39.99,-16.65 10.27,-10.27 16.65,-24.43 16.65,-39.99 0,-15.56 -6.38,-29.72 -16.65,-39.99 -10.27,-10.27 -24.43,-16.65 -39.99,-16.65l-61.72 0c-24.63,0 -47.01,-10.07 -63.23,-26.28 -16.22,-16.22 -26.28,-38.6 -26.28,-63.23 0,-24.63 10.06,-47.01 26.28,-63.23 16.22,-16.22 38.6,-26.28 63.23,-26.28l134.8 0 0 32.87 -134.8 0c-15.56,0 -29.72,6.38 -39.99,16.65 -10.27,10.27 -16.65,24.43 -16.65,39.99 0,15.56 6.38,29.72 16.65,39.99 10.27,10.27 24.43,16.65 39.99,16.65l61.72 0c24.63,0 47.01,10.06 63.23,26.28 16.22,16.22 26.28,38.6 26.28,63.23 0,24.63 -10.06,47.01 -26.28,63.23 -16.22,16.22 -38.6,26.28 -63.23,26.28l-134.8 0 0 -32.87z"/>
   <path class="fil0" d="M244.5 241.97l-19.22 -19.19 17.99 0c1.06,4.17 1.61,8.49 1.61,12.89 0,2.12 -0.13,4.23 -0.38,6.3z"/>
   <path class="fil1" d="M156.56 76.62l134.8 0c24.63,0 47.01,10.07 63.23,26.28 16.22,16.22 26.28,38.6 26.28,63.23 0,24.63 -10.07,47.01 -26.28,63.23 -13.45,13.45 -31.15,22.67 -50.86,25.42l31.42 31.38 -23.11 23.24 -35.13 -35.08c5.5,-12 8.42,-25.15 8.42,-38.66 0,-4.34 -0.3,-8.65 -0.9,-12.89l6.92 0c15.56,0 29.72,-6.38 39.99,-16.65 10.27,-10.27 16.65,-24.43 16.65,-39.99 0,-15.56 -6.38,-29.72 -16.65,-39.99 -10.27,-10.27 -24.43,-16.65 -39.99,-16.65l-134.8 0 0 -32.87z"/>
   <path class="fil2" d="M267.86 162.47c1.14,2.03 4.66,4.72 7.28,6.16 4.85,2.67 3.74,2.88 5.47,8.46 5.7,18.35 1.28,10.33 -2.6,19.12 2.67,-0.93 5.37,-3.17 7.02,-4.65 3.63,-3.26 3.79,-2.32 9.55,-1.93 2.9,0.2 8,-0.13 10.28,1.13 2.34,1.29 3.31,4.36 6.3,5.95 -3.51,-12.12 -4.65,-5.31 0.58,-18.32 4.6,-11.45 4.54,-3.88 12.65,-12.91 -18.4,4.72 -7.54,3.41 -24.61,-7.46 0.05,-6.72 -0.51,-9.52 -1.69,-15.45 -0.8,4.11 -1.15,8.19 -2.11,11.85 -1.17,4.44 -3.7,4.29 -7.35,6.56 -11.51,7.15 -8.17,4.86 -20.77,1.49zm-12.21 -21.17c9.24,1.03 6.52,-1.38 12.27,-4.04 -2.89,3.57 -4.4,2.91 -4.36,9.4 0.11,17.59 2.09,12.06 -6.35,19.63 -0.58,0.52 -1.05,0.97 -1.43,1.38 -3.36,-3.15 -6.92,-6.04 -10.66,-8.64 3.24,-21.63 20.82,-37.02 41.66,-39.24 27.15,-2.89 48.6,17.49 51.16,41.58 2.93,27.56 -17.74,48.96 -41.66,51.49 -4.85,0.51 -9.52,0.28 -13.94,-0.59 -0.3,-1.14 -0.61,-2.27 -0.95,-3.4 0.99,0.45 2.3,0.53 4.51,0.79 16.2,1.89 18.34,-2.68 25.35,-8.35 6.67,-5.4 9.04,-1.22 14.58,-8.19 13.49,-16.99 1.67,-16.86 1.45,-33.79 -0.19,-14.46 0.8,-10.41 -3.6,-19.13l4.97 4.2c-2.09,-6.02 -10.95,-14.1 -16.89,-16.62 1.23,5.39 3.43,2.96 5.62,6.98 -7.06,-2.14 -3.35,-3.11 -10.7,0.6 -11.03,5.57 -6.04,5.26 -20.69,-1.61 -7.84,-3.68 -4.1,-1.86 -11.44,-0.64 4.11,-2.6 7.04,-5.43 9.32,-9.81 -13.34,1.67 -23.07,10.38 -28.23,17.98z"/>
   <path class="fil0" d="M17.05 423.35c-3.2,0 -6.09,-0.55 -8.66,-1.65 -2.57,-1.1 -4.6,-2.68 -6.09,-4.74 -1.49,-2.06 -2.26,-4.5 -2.3,-7.31l9.87 0c0.13,1.89 0.8,3.38 2.01,4.48 1.21,1.1 2.86,1.65 4.97,1.65 2.15,0 3.84,-0.52 5.07,-1.55 1.23,-1.03 1.84,-2.38 1.84,-4.05 0,-1.36 -0.42,-2.48 -1.25,-3.36 -0.83,-0.88 -1.88,-1.57 -3.13,-2.07 -1.25,-0.5 -2.97,-1.06 -5.17,-1.68 -2.98,-0.88 -5.41,-1.74 -7.27,-2.6 -1.87,-0.86 -3.47,-2.15 -4.8,-3.88 -1.34,-1.73 -2.01,-4.05 -2.01,-6.94 0,-2.72 0.68,-5.09 2.04,-7.11 1.36,-2.02 3.27,-3.57 5.73,-4.64 2.46,-1.08 5.27,-1.61 8.43,-1.61 4.74,0 8.59,1.15 11.55,3.46 2.96,2.3 4.6,5.52 4.9,9.64l-10.14 0c-0.09,-1.58 -0.76,-2.89 -2.01,-3.92 -1.25,-1.03 -2.91,-1.55 -4.97,-1.55 -1.8,0 -3.24,0.46 -4.31,1.38 -1.08,0.92 -1.61,2.26 -1.61,4.01 0,1.23 0.41,2.25 1.22,3.06 0.81,0.81 1.82,1.47 3.03,1.97 1.21,0.51 2.91,1.09 5.1,1.74 2.98,0.88 5.42,1.76 7.31,2.63 1.89,0.88 3.51,2.19 4.87,3.95 1.36,1.76 2.04,4.06 2.04,6.91 0,2.46 -0.64,4.74 -1.91,6.85 -1.27,2.11 -3.14,3.78 -5.59,5.04 -2.46,1.25 -5.38,1.88 -8.75,1.88z"/>
   <path id="_1" class="fil0" d="M39.03 399.86c0,-4.52 1.02,-8.57 3.06,-12.14 2.04,-3.58 4.83,-6.36 8.36,-8.36 3.53,-2 7.49,-2.99 11.88,-2.99 5.13,0 9.63,1.32 13.49,3.95 3.86,2.63 6.56,6.28 8.1,10.93l-10.6 0c-1.05,-2.19 -2.53,-3.84 -4.44,-4.94 -1.91,-1.1 -4.11,-1.65 -6.62,-1.65 -2.68,0 -5.06,0.62 -7.14,1.88 -2.08,1.25 -3.71,3.02 -4.87,5.3 -1.16,2.28 -1.74,4.96 -1.74,8.03 0,3.03 0.58,5.69 1.74,8 1.16,2.3 2.79,4.08 4.87,5.33 2.08,1.25 4.46,1.88 7.14,1.88 2.5,0 4.71,-0.56 6.62,-1.68 1.91,-1.12 3.39,-2.78 4.44,-4.97l10.6 0c-1.54,4.69 -4.22,8.35 -8.06,10.96 -3.84,2.61 -8.35,3.92 -13.53,3.92 -4.39,0 -8.35,-1 -11.88,-2.99 -3.53,-2 -6.32,-4.77 -8.36,-8.33 -2.04,-3.55 -3.06,-7.59 -3.06,-12.11z"/>
   <path id="_2" class="fil0" d="M113.15 423.35c-4.3,0 -8.25,-1.01 -11.85,-3.03 -3.6,-2.02 -6.45,-4.82 -8.56,-8.39 -2.11,-3.58 -3.16,-7.63 -3.16,-12.14 0,-4.48 1.05,-8.5 3.16,-12.08 2.11,-3.58 4.96,-6.37 8.56,-8.39 3.6,-2.02 7.55,-3.03 11.85,-3.03 4.34,0 8.3,1.01 11.88,3.03 3.58,2.02 6.41,4.82 8.49,8.39 2.08,3.58 3.13,7.6 3.13,12.08 0,4.52 -1.04,8.57 -3.13,12.14 -2.09,3.58 -4.93,6.37 -8.52,8.39 -3.6,2.02 -7.55,3.03 -11.85,3.03zm0 -8.23c2.76,0 5.2,-0.63 7.31,-1.88 2.11,-1.25 3.75,-3.04 4.94,-5.36 1.18,-2.33 1.78,-5.02 1.78,-8.1 0,-3.07 -0.59,-5.76 -1.78,-8.06 -1.19,-2.3 -2.83,-4.07 -4.94,-5.3 -2.11,-1.23 -4.54,-1.84 -7.31,-1.84 -2.76,0 -5.21,0.61 -7.34,1.84 -2.13,1.23 -3.78,2.99 -4.97,5.3 -1.19,2.3 -1.78,4.99 -1.78,8.06 0,3.07 0.59,5.77 1.78,8.1 1.18,2.33 2.84,4.11 4.97,5.36 2.13,1.25 4.57,1.88 7.34,1.88z"/>
   <path id="_3" class="fil0" d="M152.58 376.95l0 28.44c0,3.12 0.81,5.5 2.44,7.14 1.62,1.65 3.91,2.47 6.85,2.47 2.98,0 5.29,-0.82 6.91,-2.47 1.62,-1.65 2.44,-4.03 2.44,-7.14l0 -28.44 9.28 0 0 28.37c0,3.9 -0.84,7.21 -2.53,9.91 -1.69,2.7 -3.95,4.73 -6.78,6.09 -2.83,1.36 -5.98,2.04 -9.45,2.04 -3.42,0 -6.53,-0.68 -9.31,-2.04 -2.79,-1.36 -4.99,-3.39 -6.62,-6.09 -1.62,-2.7 -2.44,-6 -2.44,-9.91l0 -28.37 9.21 0z"/>
   <polygon id="_4" class="fil0" points="220.64,376.95 220.64,384.39 208.39,384.39 208.39,422.89 199.18,422.89 199.18,384.39 186.94,384.39 186.94,376.95 "/>
   <path id="_5" class="fil1" d="M251.05 422.89l-10.14 -17.9 -4.34 0 0 17.9 -9.22 0 0 -45.94 17.25 0c3.55,0 6.58,0.63 9.08,1.88 2.5,1.25 4.38,2.94 5.63,5.07 1.25,2.13 1.88,4.51 1.88,7.14 0,3.03 -0.88,5.76 -2.63,8.2 -1.76,2.44 -4.37,4.11 -7.83,5.04l10.99 18.63 -10.66 0zm-14.48 -24.82l7.7 0c2.5,0 4.37,-0.6 5.6,-1.81 1.23,-1.21 1.84,-2.89 1.84,-5.04 0,-2.11 -0.61,-3.74 -1.84,-4.9 -1.23,-1.16 -3.09,-1.75 -5.6,-1.75l-7.7 0 0 13.49z"/>
   <polygon id="_6" class="fil1" points="278.76,376.95 278.76,422.89 269.54,422.89 269.54,376.95 "/>
   <path id="_7" class="fil1" d="M319.83 390.77c-1.05,-1.93 -2.5,-3.4 -4.34,-4.41 -1.84,-1.01 -3.99,-1.51 -6.45,-1.51 -2.72,0 -5.13,0.61 -7.24,1.84 -2.11,1.23 -3.75,2.98 -4.94,5.27 -1.19,2.28 -1.78,4.91 -1.78,7.9 0,3.07 0.6,5.75 1.81,8.03 1.21,2.28 2.89,4.04 5.03,5.27 2.15,1.23 4.65,1.84 7.5,1.84 3.51,0 6.38,-0.93 8.62,-2.8 2.24,-1.87 3.71,-4.47 4.41,-7.8l-15.8 0 0 -7.04 24.88 0 0 8.03c-0.61,3.2 -1.93,6.17 -3.95,8.89 -2.02,2.72 -4.62,4.9 -7.8,6.55 -3.18,1.65 -6.75,2.47 -10.7,2.47 -4.43,0 -8.44,-1 -12.01,-2.99 -3.58,-2 -6.38,-4.77 -8.43,-8.33 -2.04,-3.55 -3.06,-7.59 -3.06,-12.11 0,-4.52 1.02,-8.57 3.06,-12.14 2.04,-3.58 4.85,-6.36 8.43,-8.36 3.58,-2 7.56,-2.99 11.95,-2.99 5.18,0 9.68,1.26 13.49,3.78 3.82,2.52 6.45,6.07 7.9,10.63l-10.6 0z"/>
   <polygon id="_8" class="fil1" points="376.5,376.95 376.5,422.89 367.29,422.89 367.29,403.34 347.61,403.34 347.61,422.89 338.39,422.89 338.39,376.95 347.61,376.95 347.61,395.84 367.29,395.84 367.29,376.95 "/>
   <polygon id="_9" class="fil1" points="416.85,376.95 416.85,384.39 404.61,384.39 404.61,422.89 395.4,422.89 395.4,384.39 383.15,384.39 383.15,376.95 "/>
  </g>
 </g>
</svg>
